<svg width="1440" height="213" viewBox="0 0 1440 213" fill="none" xmlns="http://www.w3.org/2000/svg">
<path d="M9.4967 74.0482C5.89328 71.9883 3.82743 71.2995 0 71.5491V213H1440V65.5512C1433.62 66.6849 1431.89 69.087 1429.5 74.0482L1429.08 73.8931C1413.5 68.2117 1404.63 64.9784 1390.02 74.0482C1348.55 42.8061 1328.23 46.2419 1296.55 85.0444C1283.69 79.3656 1276.16 80.0045 1262.56 83.0451C1229.12 47.0197 1209.77 45.4854 1174.09 79.0465C1150.57 59.915 1135.37 56.5577 1103.62 67.5505C1078.4 34.0302 1061.38 35.5523 1029.14 51.5561C960.129 -58.0044 878.576 37.7501 878.695 64.0517C873.449 54.27 803.597 48.6626 790.725 106.537C773.452 101.769 762.955 104.025 746.241 112.535C707.626 66.1582 652.801 101.953 653.773 113.035C652.599 112.185 631.839 98.7867 608.289 106.537C597.037 55.6186 529.715 50.963 520.819 63.5519C520.553 31.9208 431.844 -55.5044 371.371 52.0559C334.776 34.0913 318.061 36.4432 295.897 67.5505C265.52 58.0499 249.769 58.9938 225.422 79.0465C186.774 42.9174 167.971 49.0087 136.952 83.0451C123.364 80.1063 115.852 79.7214 102.964 85.0444C71.5708 45.4584 50.9162 44.3505 9.4967 74.0482Z" fill="white"/>
<path d="M9.4967 74.0482C5.89328 71.9883 3.82743 71.2995 0 71.5491V213H1440V65.5512C1433.62 66.6849 1431.89 69.087 1429.5 74.0482L1429.08 73.8931C1413.5 68.2117 1404.63 64.9784 1390.02 74.0482C1348.55 42.8061 1328.23 46.2419 1296.55 85.0444C1283.69 79.3656 1276.16 80.0045 1262.56 83.0451C1229.12 47.0197 1209.77 45.4854 1174.09 79.0465C1150.57 59.915 1135.37 56.5577 1103.62 67.5505C1078.4 34.0302 1061.38 35.5523 1029.14 51.5561C960.129 -58.0044 878.576 37.7501 878.695 64.0517C873.449 54.27 803.597 48.6626 790.725 106.537C773.452 101.769 762.955 104.025 746.241 112.535C707.626 66.1582 652.801 101.953 653.773 113.035C652.599 112.185 631.839 98.7867 608.289 106.537C597.037 55.6186 529.715 50.963 520.819 63.5519C520.553 31.9208 431.844 -55.5044 371.371 52.0559C334.776 34.0913 318.061 36.4432 295.897 67.5505C265.52 58.0499 249.769 58.9938 225.422 79.0465C186.774 42.9174 167.971 49.0087 136.952 83.0451C123.364 80.1063 115.852 79.7214 102.964 85.0444C71.5708 45.4584 50.9162 44.3505 9.4967 74.0482Z" fill="#A4E2ED" fill-opacity="0.05"/>
</svg>
